<?xml version="1.0" standalone="no"?>
<!DOCTYPE svg PUBLIC "-//W3C//DTD SVG 20010904//EN"
 "http://www.w3.org/TR/2001/REC-SVG-20010904/DTD/svg10.dtd">
<svg version="1.0" xmlns="http://www.w3.org/2000/svg"
 width="160.000000pt" height="160.000000pt" viewBox="0 0 160.000000 160.000000"
 preserveAspectRatio="xMidYMid meet">
<metadata>
Created by potrace 1.11, written by Peter Selinger 2001-2013
</metadata>
<g transform="translate(0.000000,160.000000) scale(0.100000,-0.100000)"
fill="#000000" stroke="none">
<path d="M861 1458 c3 -62 6 -113 5 -114 -6 -6 -284 33 -366 51 -36 8 -84 17
-105 20 -77 12 -84 13 -92 18 -17 10 -123 17 -123 8 0 -5 11 -12 25 -15 14 -4
25 -11 25 -16 0 -15 -33 -12 -76 7 -39 17 -39 17 -11 21 23 3 27 7 21 25 -12
42 -32 45 -25 4 2 -8 -83 -2 -121 9 -17 5 -18 -10 -18 -220 l0 -226 23 -1 c44
-1 135 -8 193 -14 105 -11 72 -17 -56 -10 -69 4 -127 7 -130 7 -25 1 -30 -5
-29 -34 2 -31 2 -31 6 -5 5 33 33 37 33 4 0 -13 -5 -28 -11 -34 -8 -8 -8 -17
0 -31 6 -11 11 -59 11 -106 0 -79 -2 -86 -20 -86 -18 0 -20 -7 -20 -70 0 -40
4 -70 10 -70 6 0 10 18 10 40 0 29 4 40 15 40 11 0 14 -7 9 -25 -8 -33 23 -35
36 -2 7 18 9 19 9 4 1 -10 8 -25 16 -33 8 -8 12 -21 9 -28 -3 -8 -1 -17 4 -20
6 -3 8 -14 5 -24 -3 -14 2 -18 26 -20 27 -2 30 1 33 30 4 46 28 49 28 3 0 -36
0 -36 38 -33 31 3 37 7 40 28 2 14 5 32 8 40 4 13 6 13 14 0 6 -8 10 -25 10
-37 0 -19 5 -23 34 -23 32 0 35 3 38 32 4 41 21 43 29 3 6 -27 7 -26 8 13 1
28 5 42 15 42 17 0 29 69 14 87 -6 7 -15 13 -21 13 -5 0 -16 8 -23 18 -13 16
-13 16 -14 0 0 -10 -4 -18 -8 -18 -5 0 -14 -12 -21 -26 l-11 -26 -137 6 c-75
3 -138 7 -140 9 -2 3 23 7 57 11 47 5 60 11 61 24 2 59 -3 206 -8 218 -3 8 1
14 11 14 14 0 14 2 -1 20 -21 24 -33 26 -33 5 0 -10 -10 -15 -31 -15 -36 0
-69 16 -69 33 0 10 17 12 63 10 98 -6 147 -13 147 -24 0 -5 8 -9 18 -9 15 0
18 -6 14 -30 -3 -18 0 -30 7 -30 6 0 11 19 11 45 0 60 20 58 21 -2 2 -92 3
-96 27 -99 18 -3 22 1 22 21 0 26 -15 34 -23 13 -3 -8 -6 -6 -6 5 -1 9 6 17
14 17 8 0 15 9 15 20 0 11 -7 20 -15 20 -8 0 -15 4 -15 10 0 5 7 7 15 4 9 -4
15 0 15 10 0 24 18 19 23 -6 4 -23 4 -23 6 1 1 17 5 21 17 17 9 -3 22 -6 30
-6 7 0 16 -11 20 -25 7 -29 24 -34 25 -7 0 13 2 12 9 -5 7 -18 17 -23 44 -23
28 0 33 3 29 18 -2 10 -14 22 -26 27 -34 15 -28 39 11 43 18 2 32 -1 32 -7 0
-6 11 -11 24 -11 23 0 25 -5 28 -47 3 -46 4 -48 36 -50 l32 -3 0 50 c0 28 5
50 10 50 6 0 10 -11 10 -25 0 -22 4 -25 35 -25 28 0 35 4 35 20 0 14 -7 20
-22 21 -18 1 -19 2 -5 6 10 3 24 -1 32 -7 10 -8 19 -8 34 0 14 7 21 7 21 0 0
-5 -5 -10 -11 -10 -5 0 -7 -5 -4 -11 5 -7 12 -4 20 8 13 19 27 19 198 1 9 -1
17 -10 17 -20 0 -23 20 -34 20 -11 1 17 1 17 14 1 13 -18 32 -26 22 -10 -2 4
-1 14 5 22 7 12 9 10 9 -9 0 -21 2 -22 17 -10 13 11 17 11 20 2 6 -18 23 -16
23 2 0 13 4 14 20 5 12 -6 35 -9 53 -7 31 4 31 4 -5 5 -21 1 -38 5 -38 10 0 4
29 5 65 4 36 -2 65 -8 65 -13 0 -6 -8 -9 -17 -7 -21 4 -26 -40 -7 -59 7 -7 10
-22 7 -33 -3 -11 0 -20 6 -20 6 0 11 -5 11 -10 0 -7 -6 -7 -18 -1 -16 9 -18 6
-14 -20 2 -16 9 -29 14 -29 6 0 7 8 4 17 -4 10 -3 14 1 9 11 -11 11 -56 0 -49
-5 3 -6 -4 -2 -17 6 -20 4 -22 -14 -17 -17 4 -21 1 -21 -19 0 -13 5 -24 10
-24 6 0 10 -15 10 -34 0 -19 5 -38 10 -41 6 -3 10 -17 10 -31 0 -13 -4 -24
-10 -24 -5 0 -10 -15 -10 -34 0 -19 5 -38 10 -41 6 -3 10 -17 10 -31 0 -13 -4
-24 -10 -24 -5 0 -10 -16 -10 -35 0 -19 5 -35 10 -35 6 0 10 -13 10 -29 0 -34
10 -32 -250 -51 -80 -6 -181 -14 -225 -17 -44 -4 -97 -7 -117 -7 -37 0 -38 -1
-39 -36 0 -28 -2 -31 -9 -15 -5 11 -9 109 -9 218 l-1 197 -55 0 -55 0 0 -190
0 -190 -30 0 c-20 0 -30 -5 -30 -15 0 -19 -9 -19 -29 -2 -13 11 -43 11 -181 0
-91 -7 -208 -17 -260 -21 l-95 -7 -3 -62 -3 -63 33 0 c18 0 137 9 263 20 127
11 253 19 280 18 76 -1 77 -1 -410 -43 -22 -1 -68 -3 -102 -4 -35 -1 -63 -5
-63 -11 0 -7 273 -10 800 -10 784 0 800 0 800 19 0 12 -8 21 -22 24 l-23 4 23
2 22 1 -2 233 c-3 214 -4 232 -20 231 -10 -1 -18 2 -18 7 0 5 9 9 20 9 17 0
20 7 20 40 0 33 -4 40 -19 40 -18 0 -37 27 -26 38 3 3 5 0 5 -6 0 -7 9 -12 20
-12 16 0 20 7 20 35 0 28 -4 35 -19 35 -12 0 -21 -9 -24 -22 -4 -16 -5 -13 -4
7 2 20 10 34 27 43 l25 14 -26 -6 c-19 -4 -29 -1 -33 9 -4 11 2 15 24 15 29 0
30 1 30 53 0 51 -1 53 -78 132 -42 44 -92 97 -109 117 -31 37 -34 38 -89 34
l-58 -4 -95 89 c-77 73 -100 89 -121 86 -14 -2 -34 -1 -45 4 -16 6 -14 8 13 8
32 1 32 2 32 49 0 26 -3 91 -7 145 l-6 97 -91 0 -91 0 6 -112z m109 -148 c0
-5 -2 -10 -4 -10 -3 0 -8 5 -11 10 -3 6 -1 10 4 10 6 0 11 -4 11 -10z m420
-290 c0 -5 -2 -10 -4 -10 -3 0 -8 5 -11 10 -3 6 -1 10 4 10 6 0 11 -4 11 -10z
m-863 -33 c-1 -5 -6 -8 -10 -8 -4 1 -14 1 -22 1 -8 0 -15 3 -15 8 0 4 11 7 25
7 14 0 24 -4 22 -8z m197 -59 c7 -5 4 -8 -6 -8 -12 0 -18 7 -17 23 0 15 2 17
6 7 3 -8 11 -18 17 -22z m733 12 c1 -11 -2 -18 -8 -15 -11 7 -12 35 -1 35 4 0
8 -9 9 -20z m-1312 -20 c-3 -5 -13 -10 -21 -10 -8 0 -14 5 -14 10 0 6 9 10 21
10 11 0 17 -4 14 -10z m28 -27 c-7 -2 -19 -2 -25 0 -7 3 -2 5 12 5 14 0 19 -2
13 -5z m-2 -121 c-6 -2 -11 -10 -11 -18 0 -8 -4 -14 -10 -14 -5 0 -10 14 -10
31 0 35 -22 62 -44 53 -12 -4 -16 0 -16 16 0 16 4 21 16 16 9 -4 22 -2 28 3 6
5 20 11 31 13 18 3 20 -3 23 -47 2 -29 -1 -51 -7 -53z m-77 -7 c3 -8 1 -15 -4
-15 -6 0 -10 7 -10 15 0 8 2 15 4 15 2 0 6 -7 10 -15z m51 -35 c5 -8 11 -7 21
1 11 9 14 8 14 -3 0 -14 -45 -28 -92 -28 -25 0 -12 28 15 33 12 2 25 5 29 6 4
0 10 -4 13 -9z m149 -108 c2 -4 -7 -8 -22 -9 -24 -2 -24 -1 -7 7 11 5 21 9 22
9 1 1 4 -3 7 -7z m1293 -438 c-3 -3 -12 -4 -19 -1 -8 3 -5 6 6 6 11 1 17 -2
13 -5z m-59 -11 c-10 -2 -26 -2 -35 0 -10 3 -2 5 17 5 19 0 27 -2 18 -5z
m-341 -9 c-3 -3 -12 -4 -19 -1 -8 3 -5 6 6 6 11 1 17 -2 13 -5z m261 -1 c-10
-2 -26 -2 -35 0 -10 3 -2 5 17 5 19 0 27 -2 18 -5z m-339 -7 c-2 -2 -26 -6
-54 -9 -32 -4 -43 -3 -30 3 19 8 93 14 84 6z m126 -22 c-55 -7 -104 -12 -110
-10 -15 5 113 23 165 24 25 0 2 -6 -55 -14z m-358 -10 c-3 -3 -12 -4 -19 -1
-8 3 -5 6 6 6 11 1 17 -2 13 -5z m218 -11 c-11 -2 -35 -8 -52 -13 -18 -5 -33
-5 -33 0 0 9 36 17 80 17 19 1 20 0 5 -4z m295 -3 c0 -5 -8 -10 -17 -10 -15 0
-16 2 -3 10 19 12 20 12 20 0z m153 3 c-13 -2 -33 -2 -45 0 -13 2 -3 4 22 4
25 0 35 -2 23 -4z m-888 -13 c-38 -4 -95 -7 -125 -7 l-55 0 55 7 c30 4 87 7
125 7 l70 0 -70 -7z m700 -9 c3 -5 35 -13 72 -17 37 -4 78 -10 92 -15 l26 -7
-27 -1 c-53 -2 -178 22 -189 35 -9 11 -8 14 4 14 9 0 18 -4 22 -9z m-1050 -17
c-142 -12 -253 -16 -210 -7 38 7 230 20 295 20 36 0 -2 -6 -85 -13z m485 5
c-47 -4 -102 -10 -124 -12 -21 -3 -35 -2 -30 3 11 10 72 16 169 17 l70 0 -85
-8z m524 3 c3 -5 -8 -6 -25 -4 -16 2 -29 6 -29 8 0 8 49 4 54 -4z"/>
<path d="M638 963 c7 -3 16 -2 19 1 4 3 -2 6 -13 5 -11 0 -14 -3 -6 -6z"/>
<path d="M960 950 c0 -5 7 -10 16 -10 8 0 12 -4 9 -10 -3 -5 -3 -15 1 -21 4
-8 9 -7 14 2 5 7 3 20 -3 31 -13 19 -37 25 -37 8z"/>
<path d="M280 900 c0 -27 4 -50 9 -50 5 0 9 23 9 50 1 28 -3 50 -9 50 -5 0 -9
-22 -9 -50z"/>
<path d="M1060 926 c0 -9 5 -16 10 -16 6 0 10 4 10 9 0 6 -4 13 -10 16 -5 3
-10 -1 -10 -9z"/>
<path d="M883 875 c0 -33 2 -45 4 -27 2 18 2 45 0 60 -2 15 -4 0 -4 -33z"/>
<path d="M760 900 c0 -16 7 -20 35 -20 28 0 35 4 35 20 0 25 -27 27 -33 3 -4
-17 -5 -17 -6 0 -1 24 -31 22 -31 -3z"/>
<path d="M440 875 c0 -14 5 -25 10 -25 6 0 10 5 10 11 0 8 4 8 13 2 20 -17 67
-25 67 -12 0 8 5 7 16 -2 13 -10 17 -10 24 0 4 8 10 9 13 4 4 -6 20 -10 37
-11 25 -1 30 3 30 21 0 16 -6 23 -23 25 -13 1 -45 4 -71 6 -42 5 -49 3 -53
-14 -7 -26 -23 -26 -23 0 0 15 -7 20 -25 20 -20 0 -25 -5 -25 -25z"/>
<path d="M1110 891 c0 -6 5 -13 10 -16 6 -3 10 1 10 9 0 9 -4 16 -10 16 -5 0
-10 -4 -10 -9z"/>
<path d="M1150 880 c6 -11 12 -20 13 -20 2 0 3 9 4 20 1 12 -4 20 -13 20 -12
0 -12 -4 -4 -20z"/>
<path d="M1185 890 c3 -5 8 -10 11 -10 2 0 4 5 4 10 0 6 -5 10 -11 10 -5 0 -7
-4 -4 -10z"/>
<path d="M1223 880 c1 -11 5 -20 9 -20 4 0 8 9 8 20 0 11 -4 20 -9 20 -6 0 -9
-9 -8 -20z"/>
<path d="M310 865 c0 -14 5 -25 10 -25 6 0 10 11 10 25 0 14 -4 25 -10 25 -5
0 -10 -11 -10 -25z"/>
<path d="M0 837 c0 -20 4 -37 9 -37 10 0 9 55 -2 66 -4 4 -7 -9 -7 -29z"/>
<path d="M670 850 c0 -17 7 -20 39 -20 34 0 38 3 34 20 -4 15 -14 20 -39 20
-27 0 -34 -4 -34 -20z"/>
<path d="M770 851 c0 -12 6 -21 14 -21 17 0 15 32 -2 38 -7 2 -12 -6 -12 -17z"/>
<path d="M807 850 c8 -31 23 -34 23 -6 0 16 -6 26 -14 26 -9 0 -12 -7 -9 -20z"/>
<path d="M1031 861 c-10 -7 -11 -13 -1 -31 13 -25 15 -24 24 13 7 28 1 33 -23
18z"/>
<path d="M1117 830 c3 -11 7 -20 9 -20 2 0 4 9 4 20 0 11 -4 20 -9 20 -5 0 -7
-9 -4 -20z"/>
<path d="M1150 828 c0 -19 2 -20 10 -8 13 19 13 30 0 30 -5 0 -10 -10 -10 -22z"/>
<path d="M1184 839 c-3 -6 -2 -15 3 -20 5 -5 9 -1 9 11 0 23 -2 24 -12 9z"/>
<path d="M1223 830 c1 -11 5 -20 9 -20 4 0 8 9 8 20 0 11 -4 20 -9 20 -6 0 -9
-9 -8 -20z"/>
<path d="M520 800 c0 -23 4 -26 40 -28 36 -3 40 -1 40 22 0 21 -5 24 -40 28
-37 3 -40 2 -40 -22z"/>
<path d="M267 801 c-4 -17 1 -20 42 -23 44 -3 46 -4 43 -30 -4 -37 10 -36 26
1 10 23 18 29 37 25 19 -3 23 0 22 16 -1 16 -8 20 -39 20 -24 0 -38 -5 -38
-12 0 -9 -3 -9 -9 1 -6 10 -19 12 -40 8 -20 -4 -30 -3 -26 3 3 6 2 10 -3 10
-5 0 -12 -9 -15 -19z m136 -8 c-7 -2 -19 -2 -25 0 -7 3 -2 5 12 5 14 0 19 -2
13 -5z"/>
<path d="M660 786 c0 -9 18 -16 50 -20 40 -5 50 -10 50 -26 0 -10 5 -22 11
-26 8 -5 10 1 7 20 -5 25 -4 26 43 26 44 0 49 2 48 23 -1 16 -2 18 -6 5 -2
-10 -11 -18 -19 -18 -8 0 -13 3 -11 8 3 4 -23 6 -56 4 -45 -2 -58 0 -47 7 11
8 5 11 -27 11 -30 0 -43 -4 -43 -14z m43 -3 c-7 -2 -19 -2 -25 0 -7 3 -2 5 12
5 14 0 19 -2 13 -5z"/>
<path d="M758 793 c7 -3 16 -2 19 1 4 3 -2 6 -13 5 -11 0 -14 -3 -6 -6z"/>
<path d="M1100 772 c0 -16 11 -18 90 -21 76 -2 89 0 84 12 -4 10 -24 16 -61
19 -30 1 -57 1 -59 -1 -8 -9 -43 -8 -38 1 3 4 0 8 -5 8 -6 0 -11 -8 -11 -18z"/>
<path d="M570 720 c0 -5 5 -10 11 -10 5 0 7 5 4 10 -3 6 -8 10 -11 10 -2 0 -4
-4 -4 -10z"/>
<path d="M800 720 c0 -5 5 -10 10 -10 6 0 10 5 10 10 0 6 -4 10 -10 10 -5 0
-10 -4 -10 -10z"/>
<path d="M910 710 c0 -5 5 -10 11 -10 5 0 7 5 4 10 -3 6 -8 10 -11 10 -2 0 -4
-4 -4 -10z"/>
<path d="M609 698 c-8 -33 -7 -53 3 -59 7 -5 13 -16 13 -26 0 -15 10 -19 58
-21 49 -3 57 -1 58 15 0 14 2 13 9 -4 12 -30 18 -29 18 2 0 32 6 39 28 31 11
-4 14 -12 9 -24 -15 -34 -16 -58 -5 -86 10 -28 11 -28 25 -10 12 16 14 17 15
2 0 -11 6 -15 20 -11 29 8 28 53 -1 53 -15 0 -19 5 -15 15 3 9 -1 18 -9 21
-19 8 -19 23 0 44 12 13 12 20 2 33 -9 13 -36 18 -119 22 -60 3 -108 5 -109 3z
m41 -40 c0 7 7 12 15 12 17 0 20 -16 5 -25 -16 -10 -47 4 -47 21 0 14 2 14 14
-2 7 -10 13 -12 13 -6z m90 2 c7 -14 7 -20 0 -20 -5 0 -10 7 -10 16 0 8 -4 12
-10 9 -5 -3 -10 -1 -10 4 0 18 19 12 30 -9z m40 12 c0 -5 -7 -9 -15 -9 -8 0
-12 4 -9 9 3 4 9 8 15 8 5 0 9 -4 9 -8z m80 -132 c0 -5 -2 -10 -4 -10 -3 0 -8
5 -11 10 -3 6 -1 10 4 10 6 0 11 -4 11 -10z"/>
<path d="M930 655 c0 -14 5 -25 10 -25 6 0 10 -17 10 -38 0 -45 4 -52 31 -45
12 3 19 14 19 29 0 12 5 26 10 29 6 4 10 -7 10 -24 0 -28 3 -31 30 -31 25 0
30 4 30 24 0 14 5 28 10 31 6 4 10 -7 10 -24 0 -26 4 -31 25 -31 20 0 25 5 25
25 0 23 22 35 33 18 2 -5 2 -3 1 4 -2 7 3 19 11 27 8 8 15 24 15 35 0 20 -5
21 -140 21 l-140 0 0 -25z m50 -3 l-25 -5 25 -8 c22 -6 23 -7 4 -8 -12 -1 -26
5 -32 12 -9 10 -4 13 21 14 26 0 27 0 7 -5z m155 -14 c9 -9 -80 -8 -94 1 -8 5
6 8 38 6 28 -1 54 -4 56 -7z"/>
<path d="M870 653 c8 -3 18 -11 22 -17 5 -7 8 -4 8 7 0 11 -7 17 -22 16 -16 0
-18 -2 -8 -6z"/>
<path d="M573 604 c-6 -14 -10 -31 -8 -37 2 -7 6 -24 9 -39 9 -40 23 -35 36
12 9 33 8 44 -6 65 -9 14 -17 25 -18 25 0 0 -6 -12 -13 -26z"/>
<path d="M510 530 c0 -25 4 -30 25 -30 21 0 25 5 25 30 0 25 -4 30 -25 30 -21
0 -25 -5 -25 -30z"/>
<path d="M763 495 c0 -38 2 -53 4 -32 2 20 2 52 0 70 -2 17 -4 1 -4 -38z"/>
<path d="M953 453 c4 -43 6 -79 7 -80 0 -2 11 -3 24 -3 24 0 25 2 24 80 l-1
80 -30 0 -29 0 5 -77z"/>
<path d="M1024 458 c3 -40 5 -76 6 -80 0 -4 12 -5 28 -4 27 3 27 4 27 80 l0
76 -33 0 -34 0 6 -72z m36 32 c0 -11 -4 -20 -10 -20 -5 0 -10 9 -10 20 0 11 5
20 10 20 6 0 10 -9 10 -20z"/>
<path d="M1101 468 c3 -80 6 -88 34 -88 22 0 24 4 27 75 l3 75 -33 0 -33 0 2
-62z"/>
<path d="M891 504 c0 -11 3 -14 6 -6 3 7 2 16 -1 19 -3 4 -6 -2 -5 -13z"/>
<path d="M2 455 c1 -32 5 -45 16 -45 9 0 12 6 8 16 -3 9 -6 29 -6 45 0 16 -5
29 -10 29 -6 0 -9 -20 -8 -45z"/>
<path d="M330 492 c-6 -2 -10 -39 -10 -88 l0 -84 40 0 40 0 0 89 0 88 -30 -1
c-16 -1 -34 -2 -40 -4z m50 -89 c0 -13 -4 -23 -10 -23 -5 0 -10 -6 -10 -14 0
-8 -5 -18 -11 -22 -8 -4 -9 4 -4 27 4 19 9 43 10 54 4 30 5 31 15 15 5 -8 10
-25 10 -37z"/>
<path d="M120 400 l0 -90 38 0 37 0 0 90 0 90 -37 0 -38 0 0 -90z"/>
<path d="M211 405 c1 -47 5 -87 9 -90 4 -2 23 -2 43 2 l37 6 0 83 0 84 -45 0
-46 0 2 -85z"/>
<path d="M792 388 l3 -103 45 0 c37 0 45 3 44 18 0 9 -1 55 -2 102 l-2 85 -46
0 -45 0 3 -102z"/>
<path d="M433 430 c0 -30 2 -43 4 -27 2 15 2 39 0 55 -2 15 -4 2 -4 -28z"/>
<path d="M490 369 l0 -110 53 3 c42 2 52 6 51 21 0 9 -1 58 -2 107 l-2 90 -50
0 -50 0 0 -111z"/>
<path d="M1105 353 c-122 -6 -165 -14 -165 -30 0 -13 17 -14 133 -8 72 4 135
9 140 12 19 11 5 33 -20 31 -16 -1 -55 -3 -88 -5z"/>
<path d="M2 285 c4 -61 28 -61 28 0 0 34 -4 45 -15 45 -12 0 -15 -10 -13 -45z"/>
<path d="M410 294 c-8 -2 -76 -9 -150 -14 -167 -12 -160 -10 -160 -28 0 -13
20 -14 134 -8 74 4 143 9 153 11 10 2 31 4 46 4 21 1 28 5 25 18 -3 18 -21 24
-48 17z"/>
<path d="M902 260 c0 -14 2 -19 5 -12 2 6 2 18 0 25 -3 6 -5 1 -5 -13z"/>
</g>
</svg>
